<svg width="363" height="93" viewBox="0 0 363 93" fill="none" xmlns="http://www.w3.org/2000/svg">
<path d="M32.25 15.296L51.578 63.104C51.642 63.232 51.642 63.36 51.578 63.552L51.514 63.68C51.45 63.808 51.258 63.936 51.13 64H51.002C50.874 64 50.746 64 50.682 63.936L26.81 51.264L4.09 63.936C4.026 64 3.898 64 3.77 64H3.642C3.514 63.936 3.322 63.808 3.258 63.68L3.194 63.552C3.13 63.36 3.13 63.232 3.194 63.104L17.402 27.712C17.53 27.392 17.914 27.264 18.234 27.392C18.554 27.52 18.746 27.904 18.618 28.224L12.922 42.432L18.746 45.568L30.97 15.168L31.034 15.104C31.034 15.04 31.098 14.976 31.162 14.912C31.29 14.784 31.418 14.72 31.61 14.72H31.738C31.738 14.784 31.802 14.784 31.866 14.784C32.058 14.848 32.186 15.04 32.25 15.296ZM41.466 41.6L31.546 17.152L19.834 46.144L26.746 49.792L41.466 41.6ZM41.978 42.816L28.154 50.496L49.722 61.952L41.978 42.816ZM25.466 50.56L18.81 47.04C18.746 47.04 18.682 46.976 18.682 46.912L12.474 43.648L5.114 61.888L25.466 50.56ZM83.7005 39.36L95.3485 50.304C95.4765 50.432 95.5405 50.624 95.5405 50.816C95.5405 53.76 94.1965 56.96 91.8925 59.328C89.9085 61.44 86.1325 64 79.8605 64H64.7565C64.3725 64 64.1165 63.68 64.1165 63.36V57.792L57.7165 63.808L57.4605 64H57.2685C57.1405 64 57.0125 64 56.9485 63.936C56.7565 63.808 56.6285 63.552 56.6285 63.36V15.424C56.6285 15.104 56.7565 14.912 57.0125 14.848C57.2045 14.72 57.5245 14.784 57.7165 14.912L64.1165 20.928V15.424C64.1165 15.04 64.3725 14.784 64.7565 14.784H79.7965C86.1325 14.784 89.8445 17.28 91.8285 19.392C94.1325 21.76 95.4765 24.896 95.4765 27.84C95.5405 28.032 95.4765 28.224 95.2845 28.416L83.7005 39.36ZM82.7405 38.464L94.1965 27.712C94.1965 26.624 93.9405 25.344 93.4285 24.192C92.8525 22.72 92.0205 21.44 90.9325 20.288C89.0765 18.368 85.6845 16.064 79.7965 16.064H65.3965V22.144L82.7405 38.464ZM57.9085 16.896V61.824L64.1165 56V22.72L57.9085 16.896ZM81.7805 39.36L65.3965 23.936V54.784L81.7805 39.36ZM90.9965 58.432C92.0845 57.344 92.9165 56 93.4925 54.592C93.9405 53.44 94.1965 52.16 94.2605 51.072L82.7405 40.256L65.3965 56.576V62.72H79.8605C85.6845 62.72 89.1405 60.416 90.9965 58.432ZM135.89 19.392C138.13 21.76 139.538 24.96 139.538 27.904V50.816C139.538 53.76 138.13 56.96 135.89 59.328C133.842 61.44 130.13 64 123.794 64H123.73C120.594 64 118.034 63.36 116.05 62.464L115.858 62.72C115.794 62.976 115.538 63.168 115.282 63.168C109.394 63.168 105.874 60.8 104.018 58.816C101.842 56.576 100.562 53.568 100.562 50.816V27.904C100.562 25.152 101.842 22.144 104.018 19.904C105.874 17.92 109.266 15.68 115.026 15.616C115.282 15.488 115.602 15.616 115.794 15.872L115.858 15.936L116.114 16.32C118.098 15.424 120.594 14.784 123.858 14.784C130.13 14.784 133.842 17.28 135.89 19.392ZM116.818 17.408L131.026 38.208L138.258 27.584C138.194 26.496 137.874 25.28 137.426 24.128C136.85 22.72 136.018 21.44 134.93 20.288C133.074 18.368 129.682 16.064 123.858 16.064H123.794L116.818 17.408ZM104.914 57.92C106.578 59.648 109.714 61.76 114.898 61.824C113.554 61.056 112.466 60.16 111.698 59.328C109.394 56.96 108.05 53.76 108.05 50.816V27.904C108.05 24.96 109.394 21.76 111.698 19.392C112.466 18.56 113.554 17.664 114.898 16.896C109.714 17.024 106.578 19.072 104.914 20.8C102.674 23.168 101.842 26.048 101.842 27.904V50.816C101.842 52.672 102.674 55.552 104.914 57.92ZM109.33 27.904V50.816C109.33 51.968 109.586 53.312 110.098 54.592C110.674 56 111.506 57.28 112.594 58.432C113.362 59.2 114.322 60.032 115.666 60.8L130.257 39.36L115.666 17.984C114.322 18.688 113.362 19.52 112.594 20.288C111.506 21.44 110.674 22.72 110.098 24.128C109.586 25.408 109.33 26.752 109.33 27.904ZM131.794 39.36L138.258 48.768V29.888L131.794 39.36ZM134.93 58.432C136.018 57.28 136.85 56 137.426 54.592C137.938 53.376 138.194 52.16 138.258 51.008L131.026 40.448L116.818 61.376C118.61 62.144 120.914 62.72 123.794 62.72C129.682 62.72 133.074 60.352 134.93 58.432ZM183.599 15.68V28.544C183.663 28.672 183.663 28.864 183.599 28.992V50.816C183.599 53.76 182.255 56.96 179.951 59.328C177.967 61.44 174.191 64 167.855 64C164.655 64 162.095 63.36 160.111 62.4L159.983 62.72C159.919 62.848 159.791 63.04 159.663 63.104C159.599 63.168 159.471 63.168 159.343 63.168C153.455 63.168 149.999 60.8 148.079 58.816C145.967 56.576 144.687 53.568 144.687 50.816V15.488V15.168C144.815 14.848 145.199 14.72 145.519 14.784L177.007 25.984L182.383 15.232C182.575 14.912 182.959 14.784 183.279 14.976C183.599 15.104 183.727 15.36 183.599 15.68ZM149.039 57.92C150.703 59.648 153.775 61.76 158.958 61.888V61.824C157.615 61.056 156.591 60.16 155.823 59.328C153.519 56.96 152.175 53.76 152.175 50.816V18.496L145.967 16.32V50.816C145.967 52.672 146.735 55.552 149.039 57.92ZM182.319 18.24L178.222 26.368L182.319 27.84V18.24ZM153.455 18.944V50.816C153.455 52.032 153.711 53.312 154.223 54.592C154.799 56 155.631 57.344 156.719 58.496C157.423 59.2 158.319 60.032 159.535 60.672L176.431 27.136L153.455 18.944ZM181.551 54.592C182.062 53.312 182.319 52.032 182.319 50.816V29.248L177.647 27.52L160.687 61.312C162.543 62.144 164.847 62.72 167.919 62.72C173.743 62.72 177.199 60.416 179.055 58.496C180.143 57.344 180.975 56 181.551 54.592ZM189.645 14.72H227.341C227.661 14.72 227.981 15.04 227.981 15.36C227.981 15.744 227.661 16 227.341 16H205.389V22.272H212.301C212.621 22.272 212.941 22.528 212.941 22.912V55.808C212.941 56.064 212.813 56.192 212.685 56.32L205.197 63.808L204.941 64H204.749C204.621 64 204.557 64 204.493 63.936C204.237 63.808 204.109 63.616 204.109 63.36V23.552H197.197C196.941 23.552 196.749 23.424 196.621 23.232L189.325 15.936C189.133 15.808 189.005 15.616 189.005 15.36C189.005 15.04 189.261 14.72 189.645 14.72ZM197.453 22.272H204.109V16H191.181L197.453 22.272ZM211.661 55.488V23.552H205.389V61.824L211.661 55.488ZM320.465 14.912C320.593 15.04 320.657 15.168 320.657 15.36V63.36C320.657 63.68 320.337 64 320.017 64C319.633 64 319.377 63.68 319.377 63.36V40.128H313.169V63.36C313.169 63.68 312.849 64 312.529 64C312.145 64 311.889 63.68 311.889 63.36V40.128H280.017V63.36C280.017 63.68 279.761 64 279.377 64C279.057 64 278.737 63.68 278.737 63.36V40.128H272.593V63.36C272.593 63.68 272.273 64 271.953 64C271.569 64 271.313 63.68 271.313 63.36V15.36C271.313 15.04 271.569 14.72 271.953 14.72C272.081 14.72 272.273 14.784 272.401 14.912L295.953 38.592L319.505 14.976C319.633 14.848 319.761 14.72 320.017 14.72C320.145 14.72 320.337 14.784 320.465 14.912ZM272.593 16.896V38.848H278.737V23.104L272.593 16.896ZM313.169 23.104V38.848H319.377V16.896L313.169 23.104ZM280.017 24.384V38.848H294.417L280.017 24.384ZM297.489 38.848H311.889V24.384L297.489 38.848ZM327.989 62.72H359.605C359.989 62.72 360.245 63.04 360.245 63.36C360.245 63.744 359.989 64 359.605 64H326.453C326.133 64 325.941 63.872 325.877 63.616L325.813 63.36V15.488C325.813 15.168 326.069 14.848 326.453 14.848H359.605C359.989 14.848 360.245 15.168 360.245 15.488C360.245 15.872 359.989 16.128 359.605 16.128H327.989L350.645 38.784C350.837 38.912 350.901 39.104 350.901 39.296C350.901 39.552 350.773 39.744 350.581 39.872L327.989 62.72ZM327.093 61.824L333.301 55.552V23.232L327.093 17.024V61.824ZM334.581 38.656H348.725L334.581 24.512V38.656ZM334.581 39.936V54.272L348.725 39.936H334.581Z" fill="#CACFF6"/>
<path d="M87.0371 75.5586H89.5371C90.9499 75.5586 92.0892 75.8906 92.9551 76.5547C93.821 77.2188 94.2539 78.0814 94.2539 79.1426C94.2539 80.2103 93.7949 81.1055 92.877 81.8281C91.9655 82.5508 90.5788 82.9023 88.7168 82.8828V88H87.0371V75.5586ZM88.7168 77.043V81.3984C89.9928 81.3854 90.9368 81.2064 91.5488 80.8613C92.1673 80.5098 92.4766 79.9499 92.4766 79.1816C92.4766 78.6022 92.2422 78.1009 91.7734 77.6777C91.3112 77.2546 90.2923 77.043 88.7168 77.043ZM111.5 75.5586H118.395V77.2578H113.18V80.3633H118.395V82.043H113.18V86.3203H118.395V88H111.5V75.5586ZM135.67 75.5586H138.365C139.706 75.5586 140.797 75.8939 141.637 76.5645C142.483 77.2285 142.906 78.0814 142.906 79.123C142.906 79.9564 142.633 80.6921 142.086 81.3301C141.539 81.9681 140.686 82.4173 139.527 82.6777L143.15 88H141.207L137.75 82.8828H137.369V88H135.67V75.5586ZM137.369 77.0625V81.3984C139.876 81.4505 141.129 80.7246 141.129 79.2207C141.129 78.6934 140.982 78.2637 140.689 77.9316C140.396 77.5931 140.006 77.3652 139.518 77.248C139.029 77.1243 138.313 77.0625 137.369 77.0625ZM168.004 76.9355L166.627 78.0391C166.262 77.6615 165.93 77.3815 165.631 77.1992C165.338 77.0104 164.911 76.916 164.352 76.916C163.74 76.916 163.242 77.056 162.857 77.3359C162.48 77.6094 162.291 77.9642 162.291 78.4004C162.291 78.778 162.457 79.1133 162.789 79.4062C163.121 79.6927 163.688 80.0085 164.488 80.3535C165.289 80.6921 165.911 81.0111 166.354 81.3105C166.803 81.6035 167.171 81.929 167.457 82.2871C167.743 82.6452 167.955 83.0228 168.092 83.4199C168.235 83.8171 168.307 84.237 168.307 84.6797C168.307 85.7148 167.929 86.597 167.174 87.3262C166.425 88.0553 165.517 88.4199 164.449 88.4199C163.408 88.4199 162.486 88.1367 161.686 87.5703C160.891 86.9974 160.279 86.1413 159.85 85.002L161.549 84.5234C162.167 85.9232 163.115 86.623 164.391 86.623C165.009 86.623 165.523 86.4375 165.934 86.0664C166.344 85.6953 166.549 85.2266 166.549 84.6602C166.549 84.3216 166.441 83.9831 166.227 83.6445C166.012 83.2995 165.745 83.0163 165.426 82.7949C165.107 82.5736 164.596 82.3229 163.893 82.043C163.196 81.7565 162.659 81.4961 162.281 81.2617C161.91 81.0208 161.588 80.7376 161.314 80.4121C161.041 80.0801 160.839 79.7513 160.709 79.4258C160.585 79.1003 160.523 78.752 160.523 78.3809C160.523 77.4889 160.882 76.7305 161.598 76.1055C162.314 75.474 163.183 75.1582 164.205 75.1582C164.882 75.1582 165.569 75.3047 166.266 75.5977C166.962 75.8906 167.542 76.3366 168.004 76.9355ZM184.889 81.7012C184.889 79.9043 185.566 78.3646 186.92 77.082C188.274 75.7995 189.902 75.1582 191.803 75.1582C193.658 75.1582 195.257 75.806 196.598 77.1016C197.939 78.3906 198.609 79.9238 198.609 81.7012C198.609 83.5827 197.945 85.1745 196.617 86.4766C195.296 87.7721 193.671 88.4199 191.744 88.4199C189.843 88.4199 188.225 87.7656 186.891 86.457C185.556 85.1484 184.889 83.5632 184.889 81.7012ZM196.803 81.7793C196.803 80.4056 196.308 79.25 195.318 78.3125C194.329 77.3685 193.111 76.8965 191.666 76.8965C190.292 76.8965 189.114 77.375 188.131 78.332C187.154 79.2891 186.666 80.4382 186.666 81.7793C186.666 83.14 187.167 84.2923 188.17 85.2363C189.179 86.1738 190.413 86.6426 191.871 86.6426C193.212 86.6426 194.368 86.1641 195.338 85.207C196.314 84.2435 196.803 83.1009 196.803 81.7793ZM215.738 75.0605L224.938 84.5234V75.5586H226.637V88.5762L217.438 79.1621V88H215.738V75.0605ZM248.814 75.0801L254.693 88H252.916L251.461 84.8164H246.178L244.762 88H242.994L248.814 75.0801ZM248.814 78.9766L246.812 83.4004H250.816L248.814 78.9766ZM271.51 75.5586H273.189V86.3203H277.242V88H271.51V75.5586Z" fill="#CACFF6"/>
</svg>
