<svg width="208" height="208" viewBox="0 0 208 208" fill="none" xmlns="http://www.w3.org/2000/svg">
<circle cx="10" cy="145" r="2.5" stroke="#CACFF6"/>
<circle cx="17" cy="48" r="2.5" stroke="#CACFF6"/>
<mask id="path-3-inside-1_62_60" fill="white">
<path d="M6.17754 137.747C5.90606 137.841 5.60988 137.697 5.51758 137.425C0.923793 123.89 -0.831264 109.551 0.364201 95.304C1.55967 81.0569 5.67966 67.2112 12.4648 54.6309C12.6011 54.3782 12.9172 54.2853 13.1693 54.4229V54.4229C13.4213 54.5605 13.514 54.8764 13.3777 55.1292C6.66186 67.5825 2.58393 81.2881 1.40056 95.3909C0.217194 109.494 1.95413 123.687 6.50074 137.086C6.59302 137.358 6.44903 137.654 6.17754 137.747V137.747Z"/>
</mask>
<path d="M6.17754 137.747C5.90606 137.841 5.60988 137.697 5.51758 137.425C0.923793 123.89 -0.831264 109.551 0.364201 95.304C1.55967 81.0569 5.67966 67.2112 12.4648 54.6309C12.6011 54.3782 12.9172 54.2853 13.1693 54.4229V54.4229C13.4213 54.5605 13.514 54.8764 13.3777 55.1292C6.66186 67.5825 2.58393 81.2881 1.40056 95.3909C0.217194 109.494 1.95413 123.687 6.50074 137.086C6.59302 137.358 6.44903 137.654 6.17754 137.747V137.747Z" stroke="#CACFF6" stroke-width="2" mask="url(#path-3-inside-1_62_60)"/>
<circle cx="205" cy="83" r="2.5" stroke="#CACFF6"/>
<mask id="path-5-inside-2_62_60" fill="white">
<path d="M206.634 90.798C206.919 90.7613 207.18 90.9626 207.215 91.2477C208.968 105.433 207.778 119.83 203.717 133.538C199.656 147.246 192.813 159.969 183.617 170.911C183.433 171.131 183.104 171.158 182.885 170.972V170.972C182.666 170.786 182.64 170.458 182.825 170.238C191.927 159.406 198.7 146.812 202.72 133.243C206.74 119.673 207.918 105.422 206.184 91.3804C206.148 91.0953 206.35 90.8346 206.634 90.798V90.798Z"/>
</mask>
<path d="M206.634 90.798C206.919 90.7613 207.18 90.9626 207.215 91.2477C208.968 105.433 207.778 119.83 203.717 133.538C199.656 147.246 192.813 159.969 183.617 170.911C183.433 171.131 183.104 171.158 182.885 170.972V170.972C182.666 170.786 182.64 170.458 182.825 170.238C191.927 159.406 198.7 146.812 202.72 133.243C206.74 119.673 207.918 105.422 206.184 91.3804C206.148 91.0953 206.35 90.8346 206.634 90.798V90.798Z" stroke="#CACFF6" stroke-width="2" mask="url(#path-5-inside-2_62_60)"/>
</svg>
