<svg width="194" height="190" viewBox="0 0 194 190" fill="none" xmlns="http://www.w3.org/2000/svg">
<circle cx="109" cy="3" r="2.5" stroke="#CACFF6"/>
<circle cx="191" cy="103" r="2.5" stroke="#CACFF6"/>
<circle cx="3" cy="96" r="2.5" stroke="#CACFF6"/>
<mask id="path-4-inside-1_62_56" fill="white">
<path d="M190.53 96C190.79 96 191 95.7892 190.999 95.5297C190.891 74.0571 183.435 53.2629 169.863 36.6112C156.29 19.9595 137.427 8.46284 116.417 4.02735C116.163 3.97373 115.914 4.13745 115.862 4.39169V4.39169C115.81 4.64593 115.974 4.89442 116.228 4.94805C137.026 9.3399 155.698 20.7212 169.134 37.2051C182.57 53.689 189.951 74.2735 190.059 95.5297C190.06 95.7892 190.27 96 190.53 96V96Z"/>
</mask>
<path d="M190.53 96C190.79 96 191 95.7892 190.999 95.5297C190.891 74.0571 183.435 53.2629 169.863 36.6112C156.29 19.9595 137.427 8.46284 116.417 4.02735C116.163 3.97373 115.914 4.13745 115.862 4.39169V4.39169C115.81 4.64593 115.974 4.89442 116.228 4.94805C137.026 9.3399 155.698 20.7212 169.134 37.2051C182.57 53.689 189.951 74.2735 190.059 95.5297C190.06 95.7892 190.27 96 190.53 96V96Z" stroke="#CACFF6" stroke-width="2" mask="url(#path-4-inside-1_62_56)"/>
<mask id="path-5-inside-2_62_56" fill="white">
<path d="M3.78169 103.629C3.52298 103.651 3.33033 103.878 3.35279 104.136C5.11272 124.393 13.3945 143.538 26.9617 158.695C40.529 173.851 58.6436 184.194 78.5828 188.178C78.8374 188.229 79.0845 188.063 79.134 187.808V187.808C79.1836 187.553 79.0169 187.306 78.7624 187.255C59.0244 183.311 41.0926 173.072 27.6621 158.068C14.2316 143.064 6.03288 124.112 4.28968 104.06C4.26719 103.801 4.0404 103.608 3.78169 103.629V103.629Z"/>
</mask>
<path d="M3.78169 103.629C3.52298 103.651 3.33033 103.878 3.35279 104.136C5.11272 124.393 13.3945 143.538 26.9617 158.695C40.529 173.851 58.6436 184.194 78.5828 188.178C78.8374 188.229 79.0845 188.063 79.134 187.808V187.808C79.1836 187.553 79.0169 187.306 78.7624 187.255C59.0244 183.311 41.0926 173.072 27.6621 158.068C14.2316 143.064 6.03288 124.112 4.28968 104.06C4.26719 103.801 4.0404 103.608 3.78169 103.629V103.629Z" stroke="#CACFF6" stroke-width="2" mask="url(#path-5-inside-2_62_56)"/>
</svg>
