<svg width="198" height="198" viewBox="0 0 198 198" fill="none" xmlns="http://www.w3.org/2000/svg">
<mask id="path-1-inside-1_62_59" fill="white">
<path d="M6.78846 64.3551C6.53255 64.259 6.40296 63.9734 6.50038 63.718C11.7116 50.0556 19.8855 37.7151 30.4366 27.5853C41.1067 17.3412 53.9368 9.61821 67.9839 4.98405C82.0309 0.349894 96.9378 -1.07768 111.609 0.806255C126.117 2.66917 140.029 7.72326 152.347 15.6027C152.577 15.7501 152.643 16.0567 152.495 16.2862V16.2862C152.346 16.5158 152.04 16.5814 151.809 16.4341C139.616 8.63489 125.844 3.63226 111.483 1.78819C96.9584 -0.0769046 82.2006 1.33639 68.294 5.92421C54.3875 10.512 41.6857 18.1577 31.1222 28.2994C20.6778 38.3268 12.5863 50.5422 7.42714 64.0662C7.3297 64.3216 7.04437 64.4513 6.78846 64.3551V64.3551Z"/>
</mask>
<path d="M6.78846 64.3551C6.53255 64.259 6.40296 63.9734 6.50038 63.718C11.7116 50.0556 19.8855 37.7151 30.4366 27.5853C41.1067 17.3412 53.9368 9.61821 67.9839 4.98405C82.0309 0.349894 96.9378 -1.07768 111.609 0.806255C126.117 2.66917 140.029 7.72326 152.347 15.6027C152.577 15.7501 152.643 16.0567 152.495 16.2862V16.2862C152.346 16.5158 152.04 16.5814 151.809 16.4341C139.616 8.63489 125.844 3.63226 111.483 1.78819C96.9584 -0.0769046 82.2006 1.33639 68.294 5.92421C54.3875 10.512 41.6857 18.1577 31.1222 28.2994C20.6778 38.3268 12.5863 50.5422 7.42714 64.0662C7.3297 64.3216 7.04437 64.4513 6.78846 64.3551V64.3551Z" stroke="#CACFF6" stroke-width="2" mask="url(#path-1-inside-1_62_59)"/>
<circle cx="160" cy="21" r="2.5" stroke="#CACFF6"/>
<circle cx="33" cy="172" r="2.5" stroke="#CACFF6"/>
<mask id="path-4-inside-2_62_59" fill="white">
<path d="M187.419 142.419C187.665 142.54 187.766 142.837 187.644 143.081C181.134 156.174 171.802 167.664 160.319 176.724C148.706 185.886 135.188 192.329 120.758 195.58C106.328 198.83 91.3526 198.806 76.933 195.509C62.6744 192.249 49.3173 185.87 37.8211 176.834C37.6061 176.665 37.5704 176.354 37.7404 176.139V176.139C37.9104 175.925 38.2218 175.89 38.4368 176.059C49.8172 185.003 63.0392 191.317 77.1537 194.544C91.4291 197.808 106.254 197.832 120.54 194.614C134.826 191.395 148.209 185.017 159.706 175.947C171.073 166.979 180.31 155.605 186.756 142.645C186.878 142.4 187.174 142.299 187.419 142.419V142.419Z"/>
</mask>
<path d="M187.419 142.419C187.665 142.54 187.766 142.837 187.644 143.081C181.134 156.174 171.802 167.664 160.319 176.724C148.706 185.886 135.188 192.329 120.758 195.58C106.328 198.83 91.3526 198.806 76.933 195.509C62.6744 192.249 49.3173 185.87 37.8211 176.834C37.6061 176.665 37.5704 176.354 37.7404 176.139V176.139C37.9104 175.925 38.2218 175.89 38.4368 176.059C49.8172 185.003 63.0392 191.317 77.1537 194.544C91.4291 197.808 106.254 197.832 120.54 194.614C134.826 191.395 148.209 185.017 159.706 175.947C171.073 166.979 180.31 155.605 186.756 142.645C186.878 142.4 187.174 142.299 187.419 142.419V142.419Z" stroke="#CACFF6" stroke-width="2" mask="url(#path-4-inside-2_62_59)"/>
</svg>
