<svg width="340" height="93" viewBox="0 0 340 93" fill="none" xmlns="http://www.w3.org/2000/svg">
<path d="M9.978 62.72H20.666C21.05 62.72 21.306 62.976 21.306 63.36C21.306 63.68 21.05 64 20.666 64H3.642C3.322 64 3.002 63.68 3.002 63.36C3.002 62.976 3.322 62.72 3.642 62.72H7.802V16H3.642C3.322 16 3.002 15.744 3.002 15.36C3.002 15.04 3.322 14.72 3.642 14.72H20.666C21.05 14.72 21.306 15.04 21.306 15.36C21.306 15.744 21.05 16 20.666 16H16.57V55.872C16.57 56 16.506 56.192 16.378 56.32L9.978 62.72ZM15.29 55.616V16H9.082V61.824L15.29 55.616ZM63.8155 51.456V63.168C63.8795 63.36 63.8155 63.616 63.6875 63.808C63.5595 63.936 63.3675 64 63.1755 64H62.9835C62.9195 63.936 62.7915 63.872 62.7275 63.808L51.0155 52.032H35.2075V63.36C35.2075 63.68 34.8875 64 34.5675 64C34.1835 64 33.9275 63.68 33.9275 63.36V22.912L27.7195 16.704V63.36C27.7195 63.68 27.4635 64 27.0795 64C26.7595 64 26.4395 63.68 26.4395 63.36V15.168C26.4395 14.784 26.7595 14.528 27.0795 14.528C27.3355 14.528 27.5275 14.656 27.6555 14.848L55.1755 42.304V15.168C55.1755 14.784 55.4315 14.528 55.8155 14.528C56.1355 14.528 56.4555 14.784 56.4555 15.168V43.584L62.5355 49.664V15.168C62.5355 14.784 62.8555 14.528 63.1755 14.528C63.5595 14.528 63.8155 14.784 63.8155 15.168V51.136V51.456ZM35.2075 24.192V50.752H61.7675L35.2075 24.192ZM62.5355 52.032H52.8075L62.5355 61.696V52.032ZM69.77 14.72H107.466C107.786 14.72 108.106 15.04 108.106 15.36C108.106 15.744 107.786 16 107.466 16H85.514V22.272H92.426C92.746 22.272 93.066 22.528 93.066 22.912V55.808C93.066 56.064 92.938 56.192 92.81 56.32L85.322 63.808L85.066 64H84.874C84.746 64 84.682 64 84.618 63.936C84.362 63.808 84.234 63.616 84.234 63.36V23.552H77.322C77.066 23.552 76.874 23.424 76.746 23.232L69.45 15.936C69.258 15.808 69.13 15.616 69.13 15.36C69.13 15.04 69.386 14.72 69.77 14.72ZM77.578 22.272H84.234V16H71.306L77.578 22.272ZM91.786 55.488V23.552H85.514V61.824L91.786 55.488ZM115.239 62.72H146.855C147.239 62.72 147.495 63.04 147.495 63.36C147.495 63.744 147.239 64 146.855 64H113.703C113.383 64 113.191 63.872 113.127 63.616L113.063 63.36V15.488C113.063 15.168 113.319 14.848 113.703 14.848H146.855C147.239 14.848 147.495 15.168 147.495 15.488C147.495 15.872 147.239 16.128 146.855 16.128H115.239L137.895 38.784C138.087 38.912 138.151 39.104 138.151 39.296C138.151 39.552 138.023 39.744 137.831 39.872L115.239 62.72ZM114.343 61.824L120.551 55.552V23.232L114.343 17.024V61.824ZM121.831 38.656H135.975L121.831 24.512V38.656ZM121.831 39.936V54.272L135.975 39.936H121.831ZM175.28 40.832L187.184 63.104C187.376 63.36 187.248 63.808 186.928 63.936C186.864 64 186.736 64 186.672 64C186.416 64 186.224 63.872 186.096 63.68L173.936 41.024C173.232 41.088 172.464 41.152 171.632 41.152H161.584V56.384C161.584 56.576 161.456 56.768 161.328 56.896L153.968 63.808C153.904 63.872 153.84 63.936 153.712 64C153.648 64.064 153.584 64.064 153.456 64.064H153.264C153.2 64 153.072 63.936 153.008 63.872L152.944 63.808C152.88 63.68 152.816 63.552 152.816 63.424V15.488C152.816 15.104 153.136 14.848 153.456 14.848H160.752C160.88 14.784 161.008 14.784 161.136 14.848H171.568C177.904 14.848 181.616 17.344 183.6 19.456C185.84 21.824 187.184 24.832 187.248 27.712C187.312 27.84 187.312 27.904 187.312 28.032C187.312 30.976 185.904 34.176 183.664 36.544C182.064 38.208 179.376 40.128 175.28 40.832ZM154.096 61.952L160.304 56.128V16.128H154.096V61.952ZM182.704 20.352C180.848 18.432 177.456 16.128 171.568 16.128H162.032L174.64 39.68C178.672 39.04 181.168 37.184 182.704 35.648C183.792 34.496 184.624 33.216 185.2 31.808C185.648 30.592 185.968 29.376 186.032 28.288C185.968 28.224 185.968 28.096 185.968 28.032C185.968 26.816 185.712 25.472 185.2 24.256C184.624 22.784 183.792 21.504 182.704 20.352ZM161.584 39.872H171.632C172.208 39.872 172.784 39.872 173.296 39.808L161.584 17.984V39.872ZM194.427 62.72H226.043C226.427 62.72 226.683 63.04 226.683 63.36C226.683 63.744 226.427 64 226.043 64H192.891C192.571 64 192.379 63.872 192.315 63.616L192.251 63.36V15.488C192.251 15.168 192.507 14.848 192.891 14.848H226.043C226.427 14.848 226.683 15.168 226.683 15.488C226.683 15.872 226.427 16.128 226.043 16.128H194.427L217.083 38.784C217.275 38.912 217.339 39.104 217.339 39.296C217.339 39.552 217.211 39.744 217.019 39.872L194.427 62.72ZM193.531 61.824L199.739 55.552V23.232L193.531 17.024V61.824ZM201.019 38.656H215.163L201.019 24.512V38.656ZM201.019 39.936V54.272L215.163 39.936H201.019ZM261.17 50.24L261.426 50.432C261.49 50.56 261.49 50.752 261.49 50.88C261.49 53.248 260.53 55.936 258.866 58.176C257.522 59.904 255.858 61.312 253.81 62.272C251.506 63.424 248.818 64 245.682 64C239.41 64 235.698 61.44 233.65 59.328C231.41 56.96 230.002 53.76 230.002 50.816C230.002 50.432 230.322 50.176 230.642 50.176C231.026 50.176 231.282 50.432 231.282 50.816C231.282 52.032 231.602 53.312 232.114 54.592C232.69 56 233.522 57.344 234.61 58.432C236.466 60.416 239.858 62.72 245.682 62.72H245.81C248.626 62.72 251.122 62.208 253.234 61.12C254.898 60.288 256.306 59.264 257.458 57.92L230.258 37.312L230.194 37.248C230.066 37.12 230.002 36.992 230.002 36.8C230.002 34.56 230.834 32.128 232.306 30.016L230.258 28.48L230.13 28.352C230.066 28.224 230.002 28.096 230.002 27.968C230.002 24.96 231.41 21.824 233.65 19.392C235.698 17.28 239.41 14.784 245.682 14.784H245.81C252.146 14.784 255.858 17.28 257.842 19.392C260.146 21.824 261.49 24.96 261.49 27.968C261.49 28.288 261.234 28.608 260.85 28.608C260.53 28.608 260.21 28.288 260.21 27.968C260.21 26.752 259.954 25.472 259.442 24.192C258.866 22.72 258.034 21.44 256.946 20.288C255.09 18.368 251.634 16.064 245.682 16.064C239.858 16.064 236.466 18.368 234.61 20.288L234.098 20.864L261.106 41.344C261.362 41.408 261.554 41.664 261.618 41.856V42.048C261.618 44.352 260.786 46.784 259.314 48.896L261.17 50.24ZM260.338 42.304L233.33 21.888C232.818 22.592 232.434 23.36 232.114 24.192C231.666 25.344 231.346 26.56 231.282 27.648L233.33 29.248L233.586 29.312C233.65 29.376 233.714 29.44 233.714 29.504L258.29 48.128C259.506 46.336 260.274 44.224 260.338 42.304ZM260.21 51.136L233.266 30.784C232.05 32.576 231.346 34.624 231.282 36.48L258.226 56.896C259.378 55.104 260.146 53.056 260.21 51.136ZM264.333 14.72H302.029C302.349 14.72 302.669 15.04 302.669 15.36C302.669 15.744 302.349 16 302.029 16H280.077V22.272H286.989C287.309 22.272 287.629 22.528 287.629 22.912V55.808C287.629 56.064 287.501 56.192 287.373 56.32L279.885 63.808L279.628 64H279.437C279.309 64 279.245 64 279.181 63.936C278.925 63.808 278.797 63.616 278.797 63.36V23.552H271.885C271.629 23.552 271.437 23.424 271.309 23.232L264.013 15.936C263.821 15.808 263.693 15.616 263.693 15.36C263.693 15.04 263.949 14.72 264.333 14.72ZM272.141 22.272H278.797V16H265.869L272.141 22.272ZM286.349 55.488V23.552H280.077V61.824L286.349 55.488ZM336.92 50.24L337.176 50.432C337.24 50.56 337.24 50.752 337.24 50.88C337.24 53.248 336.28 55.936 334.616 58.176C333.272 59.904 331.608 61.312 329.56 62.272C327.256 63.424 324.568 64 321.432 64C315.16 64 311.448 61.44 309.4 59.328C307.16 56.96 305.752 53.76 305.752 50.816C305.752 50.432 306.072 50.176 306.392 50.176C306.776 50.176 307.032 50.432 307.032 50.816C307.032 52.032 307.352 53.312 307.864 54.592C308.44 56 309.272 57.344 310.36 58.432C312.216 60.416 315.608 62.72 321.432 62.72H321.56C324.376 62.72 326.872 62.208 328.984 61.12C330.648 60.288 332.056 59.264 333.208 57.92L306.008 37.312L305.944 37.248C305.816 37.12 305.752 36.992 305.752 36.8C305.752 34.56 306.584 32.128 308.056 30.016L306.008 28.48L305.88 28.352C305.816 28.224 305.752 28.096 305.752 27.968C305.752 24.96 307.16 21.824 309.4 19.392C311.448 17.28 315.16 14.784 321.432 14.784H321.56C327.896 14.784 331.608 17.28 333.592 19.392C335.896 21.824 337.24 24.96 337.24 27.968C337.24 28.288 336.984 28.608 336.6 28.608C336.28 28.608 335.96 28.288 335.96 27.968C335.96 26.752 335.704 25.472 335.192 24.192C334.616 22.72 333.784 21.44 332.696 20.288C330.84 18.368 327.384 16.064 321.432 16.064C315.608 16.064 312.216 18.368 310.36 20.288L309.848 20.864L336.856 41.344C337.112 41.408 337.304 41.664 337.368 41.856V42.048C337.368 44.352 336.536 46.784 335.064 48.896L336.92 50.24ZM336.088 42.304L309.08 21.888C308.568 22.592 308.184 23.36 307.864 24.192C307.416 25.344 307.096 26.56 307.032 27.648L309.08 29.248L309.336 29.312C309.4 29.376 309.464 29.44 309.464 29.504L334.04 48.128C335.256 46.336 336.024 44.224 336.088 42.304ZM335.96 51.136L309.016 30.784C307.8 32.576 307.096 34.624 307.032 36.48L333.976 56.896C335.128 55.104 335.896 53.056 335.96 51.136Z" fill="#CACFF6"/>
<path d="M76.0371 75.5586H78.5371C79.9499 75.5586 81.0892 75.8906 81.9551 76.5547C82.821 77.2188 83.2539 78.0814 83.2539 79.1426C83.2539 80.2103 82.7949 81.1055 81.877 81.8281C80.9655 82.5508 79.5788 82.9023 77.7168 82.8828V88H76.0371V75.5586ZM77.7168 77.043V81.3984C78.9928 81.3854 79.9368 81.2064 80.5488 80.8613C81.1673 80.5098 81.4766 79.9499 81.4766 79.1816C81.4766 78.6022 81.2422 78.1009 80.7734 77.6777C80.3112 77.2546 79.2923 77.043 77.7168 77.043ZM100.5 75.5586H107.395V77.2578H102.18V80.3633H107.395V82.043H102.18V86.3203H107.395V88H100.5V75.5586ZM124.67 75.5586H127.365C128.706 75.5586 129.797 75.8939 130.637 76.5645C131.483 77.2285 131.906 78.0814 131.906 79.123C131.906 79.9564 131.633 80.6921 131.086 81.3301C130.539 81.9681 129.686 82.4173 128.527 82.6777L132.15 88H130.207L126.75 82.8828H126.369V88H124.67V75.5586ZM126.369 77.0625V81.3984C128.876 81.4505 130.129 80.7246 130.129 79.2207C130.129 78.6934 129.982 78.2637 129.689 77.9316C129.396 77.5931 129.006 77.3652 128.518 77.248C128.029 77.1243 127.313 77.0625 126.369 77.0625ZM157.004 76.9355L155.627 78.0391C155.262 77.6615 154.93 77.3815 154.631 77.1992C154.338 77.0104 153.911 76.916 153.352 76.916C152.74 76.916 152.242 77.056 151.857 77.3359C151.48 77.6094 151.291 77.9642 151.291 78.4004C151.291 78.778 151.457 79.1133 151.789 79.4062C152.121 79.6927 152.688 80.0085 153.488 80.3535C154.289 80.6921 154.911 81.0111 155.354 81.3105C155.803 81.6035 156.171 81.929 156.457 82.2871C156.743 82.6452 156.955 83.0228 157.092 83.4199C157.235 83.8171 157.307 84.237 157.307 84.6797C157.307 85.7148 156.929 86.597 156.174 87.3262C155.425 88.0553 154.517 88.4199 153.449 88.4199C152.408 88.4199 151.486 88.1367 150.686 87.5703C149.891 86.9974 149.279 86.1413 148.85 85.002L150.549 84.5234C151.167 85.9232 152.115 86.623 153.391 86.623C154.009 86.623 154.523 86.4375 154.934 86.0664C155.344 85.6953 155.549 85.2266 155.549 84.6602C155.549 84.3216 155.441 83.9831 155.227 83.6445C155.012 83.2995 154.745 83.0163 154.426 82.7949C154.107 82.5736 153.596 82.3229 152.893 82.043C152.196 81.7565 151.659 81.4961 151.281 81.2617C150.91 81.0208 150.588 80.7376 150.314 80.4121C150.041 80.0801 149.839 79.7513 149.709 79.4258C149.585 79.1003 149.523 78.752 149.523 78.3809C149.523 77.4889 149.882 76.7305 150.598 76.1055C151.314 75.474 152.183 75.1582 153.205 75.1582C153.882 75.1582 154.569 75.3047 155.266 75.5977C155.962 75.8906 156.542 76.3366 157.004 76.9355ZM173.889 81.7012C173.889 79.9043 174.566 78.3646 175.92 77.082C177.274 75.7995 178.902 75.1582 180.803 75.1582C182.658 75.1582 184.257 75.806 185.598 77.1016C186.939 78.3906 187.609 79.9238 187.609 81.7012C187.609 83.5827 186.945 85.1745 185.617 86.4766C184.296 87.7721 182.671 88.4199 180.744 88.4199C178.843 88.4199 177.225 87.7656 175.891 86.457C174.556 85.1484 173.889 83.5632 173.889 81.7012ZM185.803 81.7793C185.803 80.4056 185.308 79.25 184.318 78.3125C183.329 77.3685 182.111 76.8965 180.666 76.8965C179.292 76.8965 178.114 77.375 177.131 78.332C176.154 79.2891 175.666 80.4382 175.666 81.7793C175.666 83.14 176.167 84.2923 177.17 85.2363C178.179 86.1738 179.413 86.6426 180.871 86.6426C182.212 86.6426 183.368 86.1641 184.338 85.207C185.314 84.2435 185.803 83.1009 185.803 81.7793ZM204.738 75.0605L213.938 84.5234V75.5586H215.637V88.5762L206.438 79.1621V88H204.738V75.0605ZM237.814 75.0801L243.693 88H241.916L240.461 84.8164H235.178L233.762 88H231.994L237.814 75.0801ZM237.814 78.9766L235.812 83.4004H239.816L237.814 78.9766ZM260.51 75.5586H262.189V86.3203H266.242V88H260.51V75.5586Z" fill="#CACFF6"/>
</svg>
