<?xml version="1.0" encoding="UTF-8"?>
<svg id="Layer_1" data-name="Layer 1" xmlns="http://www.w3.org/2000/svg" viewBox="0 0 724.04 705.11">
  <defs>
    <style>
      .cls-1 {
        fill: #fff;
      }
    </style>
  </defs>
  <path class="cls-1" d="m549.51,207.87c0,57.4-23.25,109.36-60.86,147.01-.5.5-1.04,1.04-1.58,1.54l-47-44.65c1.12-1.04,2.19-2.08,3.27-3.16,25.21-25.21,40.8-60.01,40.8-98.47,0-76.87-62.36-139.2-139.24-139.2H73.29V0h268.35c37.46,0,72.6,9.93,102.97,27.25,62.67,35.8,104.9,103.28,104.9,180.62Z"/>
  <path class="cls-1" d="m724.04,705.11h-43.26c-33.94,0-66.5-13.48-90.5-37.48l-251.92-251.88-65.36-65.36v-1h-1l1,1v224.12h-65.36V188.7l516.41,516.41Z"/>
  <path class="cls-1" d="m112.29,287.28h35.36v200h-35.36c-16.56,0-30-13.44-30-30v-140c0-16.56,13.44-30,30-30Z"/>
  <path class="cls-1" d="m30,0h52.29v70.95H30C13.44,70.95,0,57.5,0,40.95v-10.95C0,13.44,13.44,0,30,0Z"/>
  <path class="cls-1" d="m227.32,566.43h55.98v65.36h-55.98c-16.56,0-30-13.44-30-30v-5.36c0-16.56,13.44-30,30-30Z" transform="translate(-358.79 839.42) rotate(-90)"/>
</svg>