<svg width="226" height="79" viewBox="0 0 226 79" fill="none" xmlns="http://www.w3.org/2000/svg">
<path d="M48.2531 16.52L55.6931 30.44C55.8131 30.6 55.7331 30.88 55.5331 30.96C55.4931 31 55.4131 31 55.3731 31C55.2131 31 55.0931 30.92 55.0131 30.8L47.4131 16.64C46.9731 16.68 46.4931 16.72 45.9731 16.72H39.6931V26.24C39.6931 26.36 39.6131 26.48 39.5331 26.56L34.9331 30.88C34.8931 30.92 34.8531 30.96 34.7731 31C34.7331 31.04 34.6931 31.04 34.6131 31.04H34.4931C34.4531 31 34.3731 30.96 34.3331 30.92L34.2931 30.88C34.2531 30.8 34.2131 30.72 34.2131 30.64V0.679999C34.2131 0.439998 34.4131 0.28 34.6131 0.28H39.1731C39.2531 0.239998 39.3331 0.239998 39.4131 0.28H45.9331C49.8931 0.28 52.2131 1.84 53.4531 3.16C54.8531 4.64 55.6931 6.52 55.7331 8.32C55.7731 8.4 55.7731 8.44 55.7731 8.52C55.7731 10.36 54.8931 12.36 53.4931 13.84C52.4931 14.88 50.8131 16.08 48.2531 16.52ZM35.0131 29.72L38.8931 26.08V1.08H35.0131V29.72ZM52.8931 3.72C51.7331 2.52 49.6131 1.08 45.9331 1.08H39.9731L47.8531 15.8C50.3731 15.4 51.9331 14.24 52.8931 13.28C53.5731 12.56 54.0931 11.76 54.4531 10.88C54.7331 10.12 54.9331 9.36 54.9731 8.68C54.9331 8.64 54.9331 8.56 54.9331 8.52C54.9331 7.76 54.7731 6.92 54.4531 6.16C54.0931 5.24 53.5731 4.44 52.8931 3.72ZM39.6931 15.92H45.9731C46.3331 15.92 46.6931 15.92 47.0131 15.88L39.6931 2.24V15.92ZM63.2597 30.2H69.9397C70.1797 30.2 70.3397 30.36 70.3397 30.6C70.3397 30.8 70.1797 31 69.9397 31H59.2997C59.0997 31 58.8997 30.8 58.8997 30.6C58.8997 30.36 59.0997 30.2 59.2997 30.2H61.8997V0.999998H59.2997C59.0997 0.999998 58.8997 0.84 58.8997 0.599998C58.8997 0.399998 59.0997 0.199998 59.2997 0.199998H69.9397C70.1797 0.199998 70.3397 0.399998 70.3397 0.599998C70.3397 0.84 70.1797 0.999998 69.9397 0.999998H67.3797V25.92C67.3797 26 67.3397 26.12 67.2597 26.2L63.2597 30.2ZM66.5797 25.76V0.999998H62.6997V29.64L66.5797 25.76ZM97.4281 15.28C97.6681 15.28 97.8281 15.48 97.8281 15.68V22.76C97.8281 24.64 96.9881 26.6 95.5481 28.12C94.3081 29.44 91.9481 31 88.0281 31H73.9081C73.8281 31 73.7481 31 73.6681 30.96C73.5881 30.88 73.5081 30.76 73.5081 30.6V0.639997C73.5081 0.439998 73.6681 0.239998 73.9081 0.239998C74.1081 0.239998 74.3081 0.439998 74.3081 0.639997V29.68L78.1881 26.04V0.639997C78.1881 0.439998 78.3481 0.239998 78.5881 0.239998H87.9881C91.9481 0.239998 94.2681 1.84 95.5081 3.16C96.9081 4.6 97.7481 6.56 97.7881 8.4C97.7881 8.48 97.7881 8.56 97.7481 8.64C97.7481 8.72 97.6681 8.8 97.5881 8.84L78.9081 26.4C78.9081 26.48 78.8281 26.52 78.7881 26.56L74.9081 30.2H88.0281C91.6681 30.2 93.8281 28.76 94.9881 27.56C95.6681 26.84 96.1881 26.04 96.5481 25.12C96.8681 24.32 97.0281 23.52 97.0281 22.76V15.68C97.0281 15.48 97.2281 15.28 97.4281 15.28ZM78.9881 25.28L96.9881 8.36C96.9881 7.64 96.8281 6.88 96.5081 6.12C96.1481 5.24 95.6281 4.4 94.9481 3.72C93.7881 2.48 91.6681 1.04 87.9881 1.04H78.9881V25.28ZM131.486 0.239998C131.726 0.239998 131.886 0.399998 131.886 0.639997V30.6C131.886 30.84 131.726 31 131.486 31C131.366 31 131.246 30.96 131.166 30.84L116.486 16.12L101.806 30.8C101.726 30.92 101.606 31 101.446 31C101.246 31 101.046 30.84 101.046 30.6V0.639997C101.046 0.399998 101.246 0.239998 101.446 0.239998C101.686 0.239998 101.846 0.399998 101.846 0.639997V15.16H105.726V0.639997C105.726 0.399998 105.886 0.239998 106.126 0.239998C106.326 0.239998 106.526 0.399998 106.526 0.639997V15.16H126.406V0.639997C126.406 0.399998 126.606 0.239998 126.806 0.239998C127.046 0.239998 127.206 0.399998 127.206 0.639997V15.16H131.086V0.639997C131.086 0.399998 131.286 0.239998 131.486 0.239998ZM105.726 25.76V15.96H101.846V29.64L105.726 25.76ZM115.526 15.96H106.526V24.96L115.526 15.96ZM126.406 24.96V15.96H117.446L126.406 24.96ZM131.086 29.64V15.96H127.206V25.76L131.086 29.64ZM153.469 0.559999L165.549 30.44C165.589 30.52 165.589 30.6 165.549 30.72L165.509 30.8C165.469 30.88 165.349 30.96 165.269 31H165.189C165.109 31 165.029 31 164.989 30.96L150.069 23.04L135.869 30.96C135.829 31 135.749 31 135.669 31H135.589C135.509 30.96 135.389 30.88 135.349 30.8L135.309 30.72C135.269 30.6 135.269 30.52 135.309 30.44L144.189 8.32C144.269 8.12 144.509 8.04 144.709 8.12C144.909 8.2 145.029 8.44 144.949 8.64L141.389 17.52L145.029 19.48L152.669 0.48L152.709 0.439998C152.709 0.399998 152.749 0.359999 152.789 0.319999C152.869 0.239998 152.949 0.199998 153.069 0.199998H153.149C153.149 0.239998 153.189 0.239998 153.229 0.239998C153.349 0.28 153.429 0.399998 153.469 0.559999ZM159.229 17L153.029 1.72L145.709 19.84L150.029 22.12L159.229 17ZM159.549 17.76L150.909 22.56L164.389 29.72L159.549 17.76ZM149.229 22.6L145.069 20.4C145.029 20.4 144.989 20.36 144.989 20.32L141.109 18.28L136.509 29.68L149.229 22.6ZM192.025 23.16V30.48C192.065 30.6 192.025 30.76 191.945 30.88C191.865 30.96 191.745 31 191.625 31H191.505C191.465 30.96 191.385 30.92 191.345 30.88L184.025 23.52H174.145V30.6C174.145 30.8 173.945 31 173.745 31C173.505 31 173.345 30.8 173.345 30.6V5.32L169.465 1.44V30.6C169.465 30.8 169.305 31 169.065 31C168.865 31 168.665 30.8 168.665 30.6V0.48C168.665 0.239998 168.865 0.0799975 169.065 0.0799975C169.225 0.0799975 169.345 0.159999 169.425 0.28L186.625 17.44V0.48C186.625 0.239998 186.785 0.0799975 187.025 0.0799975C187.225 0.0799975 187.425 0.239998 187.425 0.48V18.24L191.225 22.04V0.48C191.225 0.239998 191.425 0.0799975 191.625 0.0799975C191.865 0.0799975 192.025 0.239998 192.025 0.48V22.96V23.16ZM174.145 6.12V22.72H190.745L174.145 6.12ZM191.225 23.52H185.145L191.225 29.56V23.52ZM20.3719 70.4L20.5319 70.52C20.5719 70.6 20.5719 70.72 20.5719 70.8C20.5719 72.28 19.9719 73.96 18.9319 75.36C18.0919 76.44 17.0519 77.32 15.7719 77.92C14.3319 78.64 12.6519 79 10.6919 79C6.77188 79 4.45187 77.4 3.17188 76.08C1.77188 74.6 0.891875 72.6 0.891875 70.76C0.891875 70.52 1.09188 70.36 1.29188 70.36C1.53188 70.36 1.69188 70.52 1.69188 70.76C1.69188 71.52 1.89188 72.32 2.21188 73.12C2.57188 74 3.09188 74.84 3.77188 75.52C4.93188 76.76 7.05188 78.2 10.6919 78.2H10.7719C12.5319 78.2 14.0919 77.88 15.4119 77.2C16.4519 76.68 17.3319 76.04 18.0519 75.2L1.05188 62.32L1.01188 62.28C0.931875 62.2 0.891875 62.12 0.891875 62C0.891875 60.6 1.41188 59.08 2.33188 57.76L1.05188 56.8L0.971875 56.72C0.931875 56.64 0.891875 56.56 0.891875 56.48C0.891875 54.6 1.77188 52.64 3.17188 51.12C4.45187 49.8 6.77188 48.24 10.6919 48.24H10.7719C14.7319 48.24 17.0519 49.8 18.2919 51.12C19.7319 52.64 20.5719 54.6 20.5719 56.48C20.5719 56.68 20.4119 56.88 20.1719 56.88C19.9719 56.88 19.7719 56.68 19.7719 56.48C19.7719 55.72 19.6119 54.92 19.2919 54.12C18.9319 53.2 18.4119 52.4 17.7319 51.68C16.5719 50.48 14.4119 49.04 10.6919 49.04C7.05188 49.04 4.93188 50.48 3.77188 51.68L3.45188 52.04L20.3319 64.84C20.4919 64.88 20.6119 65.04 20.6519 65.16V65.28C20.6519 66.72 20.1319 68.24 19.2119 69.56L20.3719 70.4ZM19.8519 65.44L2.97188 52.68C2.65188 53.12 2.41188 53.6 2.21188 54.12C1.93188 54.84 1.73188 55.6 1.69188 56.28L2.97188 57.28L3.13188 57.32C3.17188 57.36 3.21188 57.4 3.21188 57.44L18.5719 69.08C19.3319 67.96 19.8119 66.64 19.8519 65.44ZM19.7719 70.96L2.93188 58.24C2.17188 59.36 1.73188 60.64 1.69188 61.8L18.5319 74.56C19.2519 73.44 19.7319 72.16 19.7719 70.96ZM48.1006 48.8V56.84C48.1406 56.92 48.1406 57.04 48.1006 57.12V70.76C48.1006 72.6 47.2606 74.6 45.8206 76.08C44.5806 77.4 42.2206 79 38.2606 79C36.2606 79 34.6606 78.6 33.4206 78L33.3406 78.2C33.3006 78.28 33.2206 78.4 33.1406 78.44C33.1006 78.48 33.0206 78.48 32.9406 78.48C29.2606 78.48 27.1006 77 25.9006 75.76C24.5806 74.36 23.7806 72.48 23.7806 70.76V48.68V48.48C23.8606 48.28 24.1006 48.2 24.3006 48.24L43.9806 55.24L47.3406 48.52C47.4606 48.32 47.7006 48.24 47.9006 48.36C48.1006 48.44 48.1806 48.6 48.1006 48.8ZM26.5006 75.2C27.5406 76.28 29.4606 77.6 32.7006 77.68V77.64C31.8606 77.16 31.2206 76.6 30.7406 76.08C29.3006 74.6 28.4606 72.6 28.4606 70.76V50.56L24.5806 49.2V70.76C24.5806 71.92 25.0606 73.72 26.5006 75.2ZM47.3006 50.4L44.7406 55.48L47.3006 56.4V50.4ZM29.2606 50.84V70.76C29.2606 71.52 29.4206 72.32 29.7406 73.12C30.1006 74 30.6206 74.84 31.3006 75.56C31.7406 76 32.3006 76.52 33.0606 76.92L43.6206 55.96L29.2606 50.84ZM46.8206 73.12C47.1406 72.32 47.3006 71.52 47.3006 70.76V57.28L44.3806 56.2L33.7806 77.32C34.9406 77.84 36.3806 78.2 38.3006 78.2C41.9406 78.2 44.1006 76.76 45.2606 75.56C45.9406 74.84 46.4606 74 46.8206 73.12ZM55.6397 78.2H72.4397C72.6397 78.2 72.8397 78.36 72.8397 78.6C72.8397 78.84 72.6397 79 72.4397 79H51.7197C51.4797 79 51.3197 78.84 51.3197 78.6C51.3197 78.36 51.4797 78.2 51.7197 78.2H54.2797V49H51.7197C51.4797 49 51.3197 48.84 51.3197 48.6C51.3197 48.4 51.4797 48.2 51.7197 48.2H62.3197C62.5597 48.2 62.7197 48.4 62.7197 48.6C62.7197 48.84 62.5597 49 62.3197 49H59.7997V73.88C59.7997 73.96 59.7597 74.04 59.7197 74.08L59.6797 74.2L55.6397 78.2ZM58.9997 73.72V49H55.0797V77.64L58.9997 73.72ZM94.4453 48.56L106.525 78.44C106.565 78.52 106.565 78.6 106.525 78.72L106.485 78.8C106.445 78.88 106.325 78.96 106.245 79H106.165C106.085 79 106.005 79 105.965 78.96L91.0453 71.04L76.8453 78.96C76.8053 79 76.7253 79 76.6453 79H76.5653C76.4853 78.96 76.3653 78.88 76.3253 78.8L76.2853 78.72C76.2453 78.6 76.2453 78.52 76.2853 78.44L85.1653 56.32C85.2453 56.12 85.4853 56.04 85.6853 56.12C85.8853 56.2 86.0053 56.44 85.9253 56.64L82.3653 65.52L86.0053 67.48L93.6453 48.48L93.6853 48.44C93.6853 48.4 93.7253 48.36 93.7653 48.32C93.8453 48.24 93.9253 48.2 94.0453 48.2H94.1253C94.1253 48.24 94.1653 48.24 94.2053 48.24C94.3253 48.28 94.4053 48.4 94.4453 48.56ZM100.205 65L94.0053 49.72L86.6853 67.84L91.0053 70.12L100.205 65ZM100.525 65.76L91.8853 70.56L105.365 77.72L100.525 65.76ZM90.2053 70.6L86.0453 68.4C86.0053 68.4 85.9653 68.36 85.9653 68.32L82.0853 66.28L77.4853 77.68L90.2053 70.6ZM110.962 78.2H130.722C130.962 78.2 131.122 78.4 131.122 78.6C131.122 78.84 130.962 79 130.722 79H110.002C109.802 79 109.682 78.92 109.642 78.76L109.602 78.6V48.68C109.602 48.48 109.762 48.28 110.002 48.28H130.722C130.962 48.28 131.122 48.48 131.122 48.68C131.122 48.92 130.962 49.08 130.722 49.08H110.962L125.122 63.24C125.242 63.32 125.282 63.44 125.282 63.56C125.282 63.72 125.202 63.84 125.082 63.92L110.962 78.2ZM110.402 77.64L114.282 73.72V53.52L110.402 49.64V77.64ZM115.082 63.16H123.922L115.082 54.32V63.16ZM115.082 63.96V72.92L123.922 63.96H115.082ZM165.088 48.32C165.168 48.4 165.208 48.48 165.208 48.6V78.6C165.208 78.8 165.008 79 164.808 79C164.568 79 164.408 78.8 164.408 78.6V64.08H160.528V78.6C160.528 78.8 160.328 79 160.128 79C159.888 79 159.728 78.8 159.728 78.6V64.08H139.808V78.6C139.808 78.8 139.648 79 139.408 79C139.208 79 139.008 78.8 139.008 78.6V64.08H135.168V78.6C135.168 78.8 134.968 79 134.768 79C134.528 79 134.368 78.8 134.368 78.6V48.6C134.368 48.4 134.528 48.2 134.768 48.2C134.848 48.2 134.968 48.24 135.048 48.32L149.768 63.12L164.488 48.36C164.568 48.28 164.648 48.2 164.808 48.2C164.888 48.2 165.008 48.24 165.088 48.32ZM135.168 49.56V63.28H139.008V53.44L135.168 49.56ZM160.528 53.44V63.28H164.408V49.56L160.528 53.44ZM139.808 54.24V63.28H148.808L139.808 54.24ZM150.728 63.28H159.728V54.24L150.728 63.28ZM186.75 48.56L198.83 78.44C198.87 78.52 198.87 78.6 198.83 78.72L198.79 78.8C198.75 78.88 198.63 78.96 198.55 79H198.47C198.39 79 198.31 79 198.27 78.96L183.35 71.04L169.15 78.96C169.11 79 169.03 79 168.95 79H168.87C168.79 78.96 168.67 78.88 168.63 78.8L168.59 78.72C168.55 78.6 168.55 78.52 168.59 78.44L177.47 56.32C177.55 56.12 177.79 56.04 177.99 56.12C178.19 56.2 178.31 56.44 178.23 56.64L174.67 65.52L178.31 67.48L185.95 48.48L185.99 48.44C185.99 48.4 186.03 48.36 186.07 48.32C186.15 48.24 186.23 48.2 186.35 48.2H186.43C186.43 48.24 186.47 48.24 186.51 48.24C186.63 48.28 186.71 48.4 186.75 48.56ZM192.51 65L186.31 49.72L178.99 67.84L183.31 70.12L192.51 65ZM192.83 65.76L184.19 70.56L197.67 77.72L192.83 65.76ZM182.51 70.6L178.35 68.4C178.31 68.4 178.27 68.36 178.27 68.32L174.39 66.28L169.79 77.68L182.51 70.6ZM225.307 71.16V78.48C225.347 78.6 225.307 78.76 225.227 78.88C225.147 78.96 225.027 79 224.907 79H224.787C224.747 78.96 224.667 78.92 224.627 78.88L217.307 71.52H207.427V78.6C207.427 78.8 207.227 79 207.027 79C206.787 79 206.627 78.8 206.627 78.6V53.32L202.747 49.44V78.6C202.747 78.8 202.587 79 202.347 79C202.147 79 201.947 78.8 201.947 78.6V48.48C201.947 48.24 202.147 48.08 202.347 48.08C202.507 48.08 202.627 48.16 202.707 48.28L219.907 65.44V48.48C219.907 48.24 220.067 48.08 220.307 48.08C220.507 48.08 220.707 48.24 220.707 48.48V66.24L224.507 70.04V48.48C224.507 48.24 224.707 48.08 224.907 48.08C225.147 48.08 225.307 48.24 225.307 48.48V70.96V71.16ZM207.427 54.12V70.72H224.027L207.427 54.12ZM224.507 71.52H218.427L224.507 77.56V71.52Z" fill="#CACFF6"/>
</svg>
