<svg width="230" height="94" viewBox="0 0 230 94" fill="none" xmlns="http://www.w3.org/2000/svg">
<path d="M42.9825 50.24L43.2385 50.432C43.3025 50.56 43.3025 50.752 43.3025 50.88C43.3025 53.248 42.3425 55.936 40.6785 58.176C39.3345 59.904 37.6705 61.312 35.6225 62.272C33.3185 63.424 30.6305 64 27.4945 64C21.2225 64 17.5105 61.44 15.4625 59.328C13.2225 56.96 11.8145 53.76 11.8145 50.816C11.8145 50.432 12.1345 50.176 12.4545 50.176C12.8385 50.176 13.0945 50.432 13.0945 50.816C13.0945 52.032 13.4145 53.312 13.9265 54.592C14.5025 56 15.3345 57.344 16.4225 58.432C18.2785 60.416 21.6705 62.72 27.4945 62.72H27.6225C30.4385 62.72 32.9345 62.208 35.0465 61.12C36.7105 60.288 38.1185 59.264 39.2705 57.92L12.0705 37.312L12.0065 37.248C11.8785 37.12 11.8145 36.992 11.8145 36.8C11.8145 34.56 12.6465 32.128 14.1185 30.016L12.0705 28.48L11.9425 28.352C11.8785 28.224 11.8145 28.096 11.8145 27.968C11.8145 24.96 13.2225 21.824 15.4625 19.392C17.5105 17.28 21.2225 14.784 27.4945 14.784H27.6225C33.9585 14.784 37.6705 17.28 39.6545 19.392C41.9585 21.824 43.3025 24.96 43.3025 27.968C43.3025 28.288 43.0465 28.608 42.6625 28.608C42.3425 28.608 42.0225 28.288 42.0225 27.968C42.0225 26.752 41.7665 25.472 41.2545 24.192C40.6785 22.72 39.8465 21.44 38.7585 20.288C36.9025 18.368 33.4465 16.064 27.4945 16.064C21.6705 16.064 18.2785 18.368 16.4225 20.288L15.9105 20.864L42.9185 41.344C43.1745 41.408 43.3665 41.664 43.4305 41.856V42.048C43.4305 44.352 42.5985 46.784 41.1265 48.896L42.9825 50.24ZM42.1505 42.304L15.1425 21.888C14.6305 22.592 14.2465 23.36 13.9265 24.192C13.4785 25.344 13.1585 26.56 13.0945 27.648L15.1425 29.248L15.3985 29.312C15.4625 29.376 15.5265 29.44 15.5265 29.504L40.1025 48.128C41.3185 46.336 42.0865 44.224 42.1505 42.304ZM42.0225 51.136L15.0785 30.784C13.8625 32.576 13.1585 34.624 13.0945 36.48L40.0385 56.896C41.1905 55.104 41.9585 53.056 42.0225 51.136ZM66.4205 39.424L82.7405 63.04C82.9965 63.296 82.8685 63.744 82.6125 63.936C82.4845 64 82.3565 64.064 82.2285 64.064C82.0365 64.064 81.8445 63.936 81.7165 63.744L65.6525 40.512L49.5885 63.744C49.4605 63.872 49.2685 64 49.0765 64C48.6925 64 48.4365 63.68 48.4365 63.36V15.424C48.4365 15.04 48.6925 14.784 49.0765 14.784C49.4605 14.784 49.7165 15.04 49.7165 15.424V38.72H55.9245V15.424C55.9245 15.04 56.1805 14.784 56.5645 14.784C56.8845 14.784 57.2045 15.04 57.2045 15.424V38.72H65.3325L81.7165 15.04C81.9085 14.784 82.2925 14.72 82.6125 14.912C82.8685 15.104 82.9965 15.488 82.7405 15.808L66.4205 39.424ZM64.4365 40H49.7165V61.312L64.4365 40ZM95.1655 62.72H105.854C106.238 62.72 106.494 62.976 106.494 63.36C106.494 63.68 106.238 64 105.854 64H88.8295C88.5095 64 88.1895 63.68 88.1895 63.36C88.1895 62.976 88.5095 62.72 88.8295 62.72H92.9895V16H88.8295C88.5095 16 88.1895 15.744 88.1895 15.36C88.1895 15.04 88.5095 14.72 88.8295 14.72H105.854C106.238 14.72 106.494 15.04 106.494 15.36C106.494 15.744 106.238 16 105.854 16H101.758V55.872C101.758 56 101.694 56.192 101.566 56.32L95.1655 62.72ZM100.478 55.616V16H94.2695V61.824L100.478 55.616ZM118.411 62.72H145.291C145.611 62.72 145.931 62.976 145.931 63.36C145.931 63.744 145.611 64 145.291 64H112.139C111.755 64 111.499 63.744 111.499 63.36C111.499 62.976 111.755 62.72 112.139 62.72H116.235V16H112.139C111.755 16 111.499 15.744 111.499 15.36C111.499 15.04 111.755 14.72 112.139 14.72H129.099C129.483 14.72 129.739 15.04 129.739 15.36C129.739 15.744 129.483 16 129.099 16H125.067V55.808C125.067 55.936 125.003 56.064 124.939 56.128L124.875 56.32L118.411 62.72ZM123.787 55.552V16H117.515V61.824L123.787 55.552ZM158.036 62.72H184.916C185.236 62.72 185.556 62.976 185.556 63.36C185.556 63.744 185.236 64 184.916 64H151.764C151.38 64 151.124 63.744 151.124 63.36C151.124 62.976 151.38 62.72 151.764 62.72H155.86V16H151.764C151.38 16 151.124 15.744 151.124 15.36C151.124 15.04 151.38 14.72 151.764 14.72H168.724C169.108 14.72 169.364 15.04 169.364 15.36C169.364 15.744 169.108 16 168.724 16H164.692V55.808C164.692 55.936 164.628 56.064 164.564 56.128L164.5 56.32L158.036 62.72ZM163.412 55.552V16H157.14V61.824L163.412 55.552ZM220.108 50.24L220.364 50.432C220.428 50.56 220.428 50.752 220.428 50.88C220.428 53.248 219.468 55.936 217.804 58.176C216.46 59.904 214.796 61.312 212.748 62.272C210.444 63.424 207.756 64 204.62 64C198.348 64 194.635 61.44 192.588 59.328C190.348 56.96 188.94 53.76 188.94 50.816C188.94 50.432 189.26 50.176 189.58 50.176C189.964 50.176 190.22 50.432 190.22 50.816C190.22 52.032 190.54 53.312 191.052 54.592C191.628 56 192.46 57.344 193.548 58.432C195.404 60.416 198.796 62.72 204.62 62.72H204.748C207.564 62.72 210.06 62.208 212.172 61.12C213.836 60.288 215.244 59.264 216.396 57.92L189.196 37.312L189.132 37.248C189.004 37.12 188.94 36.992 188.94 36.8C188.94 34.56 189.772 32.128 191.244 30.016L189.196 28.48L189.068 28.352C189.004 28.224 188.94 28.096 188.94 27.968C188.94 24.96 190.348 21.824 192.588 19.392C194.635 17.28 198.348 14.784 204.62 14.784H204.748C211.084 14.784 214.796 17.28 216.78 19.392C219.083 21.824 220.428 24.96 220.428 27.968C220.428 28.288 220.172 28.608 219.788 28.608C219.468 28.608 219.148 28.288 219.148 27.968C219.148 26.752 218.892 25.472 218.38 24.192C217.804 22.72 216.972 21.44 215.884 20.288C214.028 18.368 210.572 16.064 204.62 16.064C198.796 16.064 195.404 18.368 193.548 20.288L193.036 20.864L220.044 41.344C220.3 41.408 220.492 41.664 220.556 41.856V42.048C220.556 44.352 219.724 46.784 218.252 48.896L220.108 50.24ZM219.276 42.304L192.268 21.888C191.756 22.592 191.372 23.36 191.052 24.192C190.604 25.344 190.284 26.56 190.22 27.648L192.268 29.248L192.524 29.312C192.588 29.376 192.652 29.44 192.652 29.504L217.228 48.128C218.444 46.336 219.212 44.224 219.276 42.304ZM219.148 51.136L192.204 30.784C190.988 32.576 190.284 34.624 190.22 36.48L217.164 56.896C218.316 55.104 219.083 53.056 219.148 51.136Z" fill="#CACFF6"/>
<path d="M1.44531 76.5586H3.125V89H1.44531V76.5586ZM20.7617 76.0605L29.9609 85.5234V76.5586H31.6602V89.5762L22.4609 80.1621V89H20.7617V76.0605ZM49.2188 76.5586H52.2363C54.6257 76.5586 56.403 77.1901 57.5684 78.4531C58.7337 79.7161 59.3164 81.1582 59.3164 82.7793C59.3164 84.4134 58.7142 85.8587 57.5098 87.1152C56.3053 88.3717 54.554 89 52.2559 89H49.2188V76.5586ZM50.918 78.2188V87.3203H51.0156C52.2786 87.3203 53.2292 87.265 53.8672 87.1543C54.5052 87.0371 55.1107 86.7865 55.6836 86.4023C56.2565 86.0182 56.7122 85.5104 57.0508 84.8789C57.3893 84.2409 57.5586 83.541 57.5586 82.7793C57.5586 81.8223 57.2884 80.9564 56.748 80.1816C56.2077 79.4069 55.5599 78.8861 54.8047 78.6191C54.056 78.3522 53.0469 78.2188 51.7773 78.2188H50.918ZM76.2695 76.5586H77.9492V89H76.2695V76.5586ZM94.6484 76.5781H96.4453L100.342 85.377L104.268 76.5781H106.084L100.322 89.4199L94.6484 76.5781ZM122.754 76.5586H124.434V89H122.754V76.5586ZM142.188 76.5586H145.205C147.594 76.5586 149.372 77.1901 150.537 78.4531C151.702 79.7161 152.285 81.1582 152.285 82.7793C152.285 84.4134 151.683 85.8587 150.479 87.1152C149.274 88.3717 147.523 89 145.225 89H142.188V76.5586ZM143.887 78.2188V87.3203H143.984C145.247 87.3203 146.198 87.265 146.836 87.1543C147.474 87.0371 148.079 86.7865 148.652 86.4023C149.225 86.0182 149.681 85.5104 150.02 84.8789C150.358 84.2409 150.527 83.541 150.527 82.7793C150.527 81.8223 150.257 80.9564 149.717 80.1816C149.176 79.4069 148.529 78.8861 147.773 78.6191C147.025 78.3522 146.016 78.2188 144.746 78.2188H143.887ZM169.199 76.5781H170.898V84.2246C170.898 85.3574 171.169 86.2331 171.709 86.8516C172.256 87.4701 173.027 87.7793 174.023 87.7793C175.013 87.7793 175.781 87.4961 176.328 86.9297C176.882 86.3568 177.158 85.5527 177.158 84.5176V76.5781H178.857V84.4004C178.857 85.9238 178.421 87.1413 177.549 88.0527C176.683 88.9642 175.527 89.4199 174.082 89.4199C172.604 89.4199 171.419 88.9577 170.527 88.0332C169.642 87.1087 169.199 85.7448 169.199 83.9414V76.5781ZM200.986 76.0801L206.865 89H205.088L203.633 85.8164H198.35L196.934 89H195.166L200.986 76.0801ZM200.986 79.9766L198.984 84.4004H202.988L200.986 79.9766ZM223.682 76.5586H225.361V87.3203H229.414V89H223.682V76.5586Z" fill="#CACFF6"/>
</svg>
