<svg width="300" height="93" viewBox="0 0 300 93" fill="none" xmlns="http://www.w3.org/2000/svg">
<path d="M95.5155 14.784C95.8995 14.784 96.1555 15.04 96.1555 15.424V63.36C96.1555 63.744 95.8995 64 95.5155 64C95.3235 64 95.1315 63.936 95.0035 63.744L71.5155 40.192L48.0275 63.68C47.8995 63.872 47.7075 64 47.4515 64C47.1315 64 46.8115 63.744 46.8115 63.36V15.424C46.8115 15.04 47.1315 14.784 47.4515 14.784C47.8355 14.784 48.0915 15.04 48.0915 15.424V38.656H54.2995V15.424C54.2995 15.04 54.5555 14.784 54.9395 14.784C55.2595 14.784 55.5795 15.04 55.5795 15.424V38.656H87.3875V15.424C87.3875 15.04 87.7075 14.784 88.0275 14.784C88.4115 14.784 88.6675 15.04 88.6675 15.424V38.656H94.8755V15.424C94.8755 15.04 95.1955 14.784 95.5155 14.784ZM54.2995 55.616V39.936H48.0915V61.824L54.2995 55.616ZM69.9795 39.936H55.5795V54.336L69.9795 39.936ZM87.3875 54.336V39.936H73.0515L87.3875 54.336ZM94.8755 61.824V39.936H88.6675V55.616L94.8755 61.824ZM136.64 19.392C138.88 21.76 140.288 24.96 140.288 27.904V50.816C140.288 53.76 138.88 56.96 136.64 59.328C134.592 61.44 130.88 64 124.544 64H124.48C121.344 64 118.784 63.36 116.8 62.464L116.608 62.72C116.544 62.976 116.288 63.168 116.032 63.168C110.144 63.168 106.624 60.8 104.768 58.816C102.592 56.576 101.312 53.568 101.312 50.816V27.904C101.312 25.152 102.592 22.144 104.768 19.904C106.624 17.92 110.016 15.68 115.776 15.616C116.032 15.488 116.352 15.616 116.544 15.872L116.608 15.936L116.864 16.32C118.848 15.424 121.344 14.784 124.608 14.784C130.88 14.784 134.592 17.28 136.64 19.392ZM117.568 17.408L131.776 38.208L139.008 27.584C138.944 26.496 138.624 25.28 138.176 24.128C137.6 22.72 136.768 21.44 135.68 20.288C133.824 18.368 130.432 16.064 124.608 16.064H124.544L117.568 17.408ZM105.664 57.92C107.328 59.648 110.464 61.76 115.648 61.824C114.304 61.056 113.216 60.16 112.448 59.328C110.144 56.96 108.8 53.76 108.8 50.816V27.904C108.8 24.96 110.144 21.76 112.448 19.392C113.216 18.56 114.304 17.664 115.648 16.896C110.464 17.024 107.328 19.072 105.664 20.8C103.424 23.168 102.592 26.048 102.592 27.904V50.816C102.592 52.672 103.424 55.552 105.664 57.92ZM110.08 27.904V50.816C110.08 51.968 110.336 53.312 110.848 54.592C111.424 56 112.256 57.28 113.344 58.432C114.112 59.2 115.072 60.032 116.416 60.8L131.007 39.36L116.416 17.984C115.072 18.688 114.112 19.52 113.344 20.288C112.256 21.44 111.424 22.72 110.848 24.128C110.336 25.408 110.08 26.752 110.08 27.904ZM132.544 39.36L139.008 48.768V29.888L132.544 39.36ZM135.68 58.432C136.768 57.28 137.6 56 138.176 54.592C138.688 53.376 138.944 52.16 139.008 51.008L131.776 40.448L117.568 61.376C119.36 62.144 121.664 62.72 124.544 62.72C130.432 62.72 133.824 60.352 135.68 58.432ZM168.093 40.832L179.997 63.104C180.189 63.36 180.061 63.808 179.741 63.936C179.677 64 179.549 64 179.485 64C179.229 64 179.037 63.872 178.909 63.68L166.749 41.024C166.045 41.088 165.277 41.152 164.445 41.152H154.397V56.384C154.397 56.576 154.269 56.768 154.141 56.896L146.781 63.808C146.717 63.872 146.653 63.936 146.525 64C146.461 64.064 146.397 64.064 146.269 64.064H146.077C146.013 64 145.885 63.936 145.821 63.872L145.757 63.808C145.693 63.68 145.629 63.552 145.629 63.424V15.488C145.629 15.104 145.949 14.848 146.269 14.848H153.565C153.693 14.784 153.821 14.784 153.949 14.848H164.381C170.717 14.848 174.429 17.344 176.413 19.456C178.653 21.824 179.997 24.832 180.061 27.712C180.125 27.84 180.125 27.904 180.125 28.032C180.125 30.976 178.717 34.176 176.477 36.544C174.877 38.208 172.189 40.128 168.093 40.832ZM146.909 61.952L153.117 56.128V16.128H146.909V61.952ZM175.517 20.352C173.661 18.432 170.269 16.128 164.381 16.128H154.845L167.453 39.68C171.485 39.04 173.981 37.184 175.517 35.648C176.604 34.496 177.437 33.216 178.013 31.808C178.461 30.592 178.781 29.376 178.845 28.288C178.781 28.224 178.781 28.096 178.781 28.032C178.781 26.816 178.525 25.472 178.013 24.256C177.437 22.784 176.604 21.504 175.517 20.352ZM154.397 39.872H164.445C165.021 39.872 165.597 39.872 166.109 39.808L154.397 17.984V39.872ZM202.983 39.424L219.303 63.04C219.559 63.296 219.431 63.744 219.175 63.936C219.047 64 218.919 64.064 218.791 64.064C218.599 64.064 218.407 63.936 218.279 63.744L202.215 40.512L186.151 63.744C186.023 63.872 185.831 64 185.639 64C185.255 64 184.999 63.68 184.999 63.36V15.424C184.999 15.04 185.255 14.784 185.639 14.784C186.023 14.784 186.279 15.04 186.279 15.424V38.72H192.487V15.424C192.487 15.04 192.743 14.784 193.127 14.784C193.447 14.784 193.767 15.04 193.767 15.424V38.72H201.895L218.279 15.04C218.471 14.784 218.855 14.72 219.175 14.912C219.431 15.104 219.559 15.488 219.303 15.808L202.983 39.424ZM200.999 40H186.279V61.312L200.999 40ZM253.983 50.24L254.239 50.432C254.303 50.56 254.303 50.752 254.303 50.88C254.303 53.248 253.343 55.936 251.679 58.176C250.335 59.904 248.671 61.312 246.623 62.272C244.319 63.424 241.631 64 238.495 64C232.223 64 228.51 61.44 226.463 59.328C224.223 56.96 222.815 53.76 222.815 50.816C222.815 50.432 223.135 50.176 223.455 50.176C223.839 50.176 224.095 50.432 224.095 50.816C224.095 52.032 224.415 53.312 224.927 54.592C225.503 56 226.335 57.344 227.423 58.432C229.279 60.416 232.671 62.72 238.495 62.72H238.623C241.439 62.72 243.935 62.208 246.047 61.12C247.711 60.288 249.119 59.264 250.271 57.92L223.071 37.312L223.007 37.248C222.879 37.12 222.815 36.992 222.815 36.8C222.815 34.56 223.647 32.128 225.119 30.016L223.071 28.48L222.943 28.352C222.879 28.224 222.815 28.096 222.815 27.968C222.815 24.96 224.223 21.824 226.463 19.392C228.51 17.28 232.223 14.784 238.495 14.784H238.623C244.959 14.784 248.671 17.28 250.655 19.392C252.958 21.824 254.303 24.96 254.303 27.968C254.303 28.288 254.047 28.608 253.663 28.608C253.343 28.608 253.023 28.288 253.023 27.968C253.023 26.752 252.767 25.472 252.255 24.192C251.679 22.72 250.847 21.44 249.759 20.288C247.903 18.368 244.447 16.064 238.495 16.064C232.671 16.064 229.279 18.368 227.423 20.288L226.911 20.864L253.919 41.344C254.175 41.408 254.367 41.664 254.431 41.856V42.048C254.431 44.352 253.599 46.784 252.127 48.896L253.983 50.24ZM253.151 42.304L226.143 21.888C225.631 22.592 225.247 23.36 224.927 24.192C224.479 25.344 224.159 26.56 224.095 27.648L226.143 29.248L226.399 29.312C226.463 29.376 226.527 29.44 226.527 29.504L251.103 48.128C252.319 46.336 253.087 44.224 253.151 42.304ZM253.023 51.136L226.079 30.784C224.863 32.576 224.159 34.624 224.095 36.48L251.039 56.896C252.191 55.104 252.958 53.056 253.023 51.136Z" fill="#CACFF6"/>
<path d="M11.5723 75.9785V77.9023C10.2311 77.2448 8.9974 76.916 7.87109 76.916C6.42578 76.916 5.20833 77.3848 4.21875 78.3223C3.22917 79.2533 2.73438 80.3991 2.73438 81.7598C2.73438 83.1465 3.23893 84.3053 4.24805 85.2363C5.26367 86.1608 6.5332 86.623 8.05664 86.623C9.16341 86.623 10.3353 86.2747 11.5723 85.5781V87.5215C10.446 88.1204 9.22526 88.4199 7.91016 88.4199C5.98307 88.4199 4.33594 87.7689 2.96875 86.4668C1.60156 85.1582 0.917969 83.5827 0.917969 81.7402C0.917969 79.9303 1.58854 78.3809 2.92969 77.0918C4.27734 75.8027 5.89844 75.1582 7.79297 75.1582C9.01042 75.1582 10.2702 75.4316 11.5723 75.9785ZM28.0859 81.7012C28.0859 79.9043 28.763 78.3646 30.1172 77.082C31.4714 75.7995 33.099 75.1582 35 75.1582C36.8555 75.1582 38.4538 75.806 39.7949 77.1016C41.1361 78.3906 41.8066 79.9238 41.8066 81.7012C41.8066 83.5827 41.1426 85.1745 39.8145 86.4766C38.4928 87.7721 36.8685 88.4199 34.9414 88.4199C33.0404 88.4199 31.4225 87.7656 30.0879 86.457C28.7533 85.1484 28.0859 83.5632 28.0859 81.7012ZM40 81.7793C40 80.4056 39.5052 79.25 38.5156 78.3125C37.526 77.3685 36.3086 76.8965 34.8633 76.8965C33.4896 76.8965 32.3112 77.375 31.3281 78.332C30.3516 79.2891 29.8633 80.4382 29.8633 81.7793C29.8633 83.14 30.3646 84.2923 31.3672 85.2363C32.3763 86.1738 33.61 86.6426 35.0684 86.6426C36.4095 86.6426 37.5651 86.1641 38.5352 85.207C39.5117 84.2435 40 83.1009 40 81.7793ZM66.6309 76.9355L65.2539 78.0391C64.8893 77.6615 64.5573 77.3815 64.2578 77.1992C63.9648 77.0104 63.5384 76.916 62.9785 76.916C62.3665 76.916 61.8685 77.056 61.4844 77.3359C61.1068 77.6094 60.918 77.9642 60.918 78.4004C60.918 78.778 61.084 79.1133 61.416 79.4062C61.748 79.6927 62.3145 80.0085 63.1152 80.3535C63.916 80.6921 64.5378 81.0111 64.9805 81.3105C65.4297 81.6035 65.7975 81.929 66.084 82.2871C66.3704 82.6452 66.582 83.0228 66.7188 83.4199C66.862 83.8171 66.9336 84.237 66.9336 84.6797C66.9336 85.7148 66.556 86.597 65.8008 87.3262C65.0521 88.0553 64.1439 88.4199 63.0762 88.4199C62.0345 88.4199 61.1133 88.1367 60.3125 87.5703C59.5182 86.9974 58.9062 86.1413 58.4766 85.002L60.1758 84.5234C60.7943 85.9232 61.7415 86.623 63.0176 86.623C63.6361 86.623 64.1504 86.4375 64.5605 86.0664C64.9707 85.6953 65.1758 85.2266 65.1758 84.6602C65.1758 84.3216 65.0684 83.9831 64.8535 83.6445C64.6387 83.2995 64.3717 83.0163 64.0527 82.7949C63.7337 82.5736 63.2227 82.3229 62.5195 82.043C61.8229 81.7565 61.2858 81.4961 60.9082 81.2617C60.5371 81.0208 60.2148 80.7376 59.9414 80.4121C59.668 80.0801 59.4661 79.7513 59.3359 79.4258C59.2122 79.1003 59.1504 78.752 59.1504 78.3809C59.1504 77.4889 59.5085 76.7305 60.2246 76.1055C60.9408 75.474 61.8099 75.1582 62.832 75.1582C63.5091 75.1582 64.196 75.3047 64.8926 75.5977C65.5892 75.8906 66.1686 76.3366 66.6309 76.9355ZM83.2715 75.5586H90.8789V77.2578H87.9102V88H86.2305V77.2578H83.2715V75.5586ZM138.389 75.9785V77.9023C137.048 77.2448 135.814 76.916 134.688 76.916C133.242 76.916 132.025 77.3848 131.035 78.3223C130.046 79.2533 129.551 80.3991 129.551 81.7598C129.551 83.1465 130.055 84.3053 131.064 85.2363C132.08 86.1608 133.35 86.623 134.873 86.623C135.98 86.623 137.152 86.2747 138.389 85.5781V87.5215C137.262 88.1204 136.042 88.4199 134.727 88.4199C132.799 88.4199 131.152 87.7689 129.785 86.4668C128.418 85.1582 127.734 83.5827 127.734 81.7402C127.734 79.9303 128.405 78.3809 129.746 77.0918C131.094 75.8027 132.715 75.1582 134.609 75.1582C135.827 75.1582 137.087 75.4316 138.389 75.9785ZM154.902 81.7012C154.902 79.9043 155.579 78.3646 156.934 77.082C158.288 75.7995 159.915 75.1582 161.816 75.1582C163.672 75.1582 165.27 75.806 166.611 77.1016C167.952 78.3906 168.623 79.9238 168.623 81.7012C168.623 83.5827 167.959 85.1745 166.631 86.4766C165.309 87.7721 163.685 88.4199 161.758 88.4199C159.857 88.4199 158.239 87.7656 156.904 86.457C155.57 85.1484 154.902 83.5632 154.902 81.7012ZM166.816 81.7793C166.816 80.4056 166.322 79.25 165.332 78.3125C164.342 77.3685 163.125 76.8965 161.68 76.8965C160.306 76.8965 159.128 77.375 158.145 78.332C157.168 79.2891 156.68 80.4382 156.68 81.7793C156.68 83.14 157.181 84.2923 158.184 85.2363C159.193 86.1738 160.426 86.6426 161.885 86.6426C163.226 86.6426 164.382 86.1641 165.352 85.207C166.328 84.2435 166.816 83.1009 166.816 81.7793ZM185.752 75.0605L194.951 84.5234V75.5586H196.65V88.5762L187.451 79.1621V88H185.752V75.0605ZM213.428 75.5586H221.035V77.2578H218.066V88H216.387V77.2578H213.428V75.5586ZM238.223 75.5586H240.918C242.259 75.5586 243.35 75.8939 244.189 76.5645C245.036 77.2285 245.459 78.0814 245.459 79.123C245.459 79.9564 245.186 80.6921 244.639 81.3301C244.092 81.9681 243.239 82.4173 242.08 82.6777L245.703 88H243.76L240.303 82.8828H239.922V88H238.223V75.5586ZM239.922 77.0625V81.3984C242.428 81.4505 243.682 80.7246 243.682 79.2207C243.682 78.6934 243.535 78.2637 243.242 77.9316C242.949 77.5931 242.559 77.3652 242.07 77.248C241.582 77.1243 240.866 77.0625 239.922 77.0625ZM262.441 81.7012C262.441 79.9043 263.118 78.3646 264.473 77.082C265.827 75.7995 267.454 75.1582 269.355 75.1582C271.211 75.1582 272.809 75.806 274.15 77.1016C275.492 78.3906 276.162 79.9238 276.162 81.7012C276.162 83.5827 275.498 85.1745 274.17 86.4766C272.848 87.7721 271.224 88.4199 269.297 88.4199C267.396 88.4199 265.778 87.7656 264.443 86.457C263.109 85.1484 262.441 83.5632 262.441 81.7012ZM274.355 81.7793C274.355 80.4056 273.861 79.25 272.871 78.3125C271.882 77.3685 270.664 76.8965 269.219 76.8965C267.845 76.8965 266.667 77.375 265.684 78.332C264.707 79.2891 264.219 80.4382 264.219 81.7793C264.219 83.14 264.72 84.2923 265.723 85.2363C266.732 86.1738 267.965 86.6426 269.424 86.6426C270.765 86.6426 271.921 86.1641 272.891 85.207C273.867 84.2435 274.355 83.1009 274.355 81.7793ZM293.633 75.5586H295.312V86.3203H299.365V88H293.633V75.5586Z" fill="#CACFF6"/>
</svg>
